<?xml version="1.0" encoding="utf-8" ?><svg xmlns="http://www.w3.org/2000/svg" xmlns:xlink="http://www.w3.org/1999/xlink" width="1024" height="1024" viewBox="0 0 1024 1024"><path fill="#413F41" d="M577.091 226.213C643.553 222.407 744.509 284.112 714.077 361.465C710.142 371.466 701.924 380.635 694.889 388.592C700.97 412.915 704.981 437.031 703.624 462.178C700.68 516.736 678.529 568.632 637.809 605.509C598.099 641.703 545.503 660.409 491.856 657.418C482 656.874 425.489 649.68 427.702 636.668C432.077 633.335 447.423 640.758 452.796 642.222C602.772 683.074 730.859 540.248 686.768 395.183C684.088 396.93 681.383 398.637 678.654 400.305C684.304 420.161 685.818 448.11 684.36 468.501C680.8 517.997 657.722 564.051 620.204 596.53C584.504 627.315 535.93 642.896 489.267 638.438C478.819 637.44 448.463 633.706 441.768 625.917C439.758 618.313 456.38 623.589 459.626 624.544C492.606 634.241 522.583 631.791 555.161 622.79C549.639 619.875 542.447 616.118 537.307 612.684C514.078 597.164 497.121 574.852 482.874 551.19C473.963 554.509 463.815 559.763 455.338 564.042C448.962 567.253 425.26 581.468 420.02 577.605C419.438 576.19 419.536 576.261 419.903 574.746C424.164 568.631 469.757 547.896 477.897 543.943C472.064 534.317 467.944 524.186 462.976 514.185C454.075 496.267 446.046 478.329 438.794 459.693C435.584 451.443 430.953 440.647 429.029 432.071C416.561 431.296 412.412 430.887 403.542 421.168C389.876 426.832 375.345 435.32 362.536 442.692C351.987 448.762 343.177 453.28 333.233 460.51C335.499 488.662 341.44 512.723 356.258 536.691C358.08 539.638 360.481 543.707 356.683 546.009C350.447 546.167 346.102 536.058 343.569 531.155C331.449 507.671 325.102 481.636 325.056 455.208C324.995 403.077 342.608 359.189 379.296 322.355C412.062 289.013 456.698 270.003 503.443 269.482C505.809 265.872 508.055 262.185 510.176 258.426C502.629 257.983 496.103 259.174 488.692 259.797C409.014 266.496 341.058 326.027 320.337 402.703C307.005 452.035 314.875 508.701 343.214 551.744C346.131 556.174 353.922 564.62 352.462 569.907C350.89 571.455 347.802 572.326 346.273 570.361C285.424 492.154 295.413 383.728 361.825 313.025C392.871 280.432 433.957 259.201 478.503 252.73C491.525 250.868 503.584 250.843 516.677 250.435C536.503 233.187 550.779 228.293 577.091 226.213ZM516.722 422.553C522.997 417.695 568.997 381.069 572.858 380.005C577.692 380.758 582.851 384.611 587.584 386.571C619.754 402.956 661.438 408.824 690.15 381.418C737.536 336.187 698.729 275.562 650.032 252.008C632.397 243.479 597.464 231.021 577.781 234.688C554.053 237.257 534.672 241.023 518.81 260.525C495.421 289.282 507.926 327.711 531.511 351.831C544.004 364.607 544.274 359.139 536.772 376.521C533.504 384.246 530.136 391.929 526.669 399.567C523.247 406.95 519.116 414.886 516.722 422.553ZM449.211 394.091C452.388 410.98 452.989 419.337 436.58 429.294C443.384 450.281 451.29 470.894 460.265 491.047C467.55 507.176 476.779 524.668 485.197 540.33C497.76 533.972 511.384 527.869 524.225 521.981C534.277 517.5 550.604 510.514 559.779 505.236C556.169 489.919 561.421 477.836 577.037 473.015C574.132 465.354 570.963 457.358 567.182 450.094C563.238 442.521 558.728 435.182 554.799 427.579C538.247 431.324 516.743 439.12 499.997 444.402C501.605 435.68 509.69 417.335 513.419 408.355C511.581 401.521 506.071 380.15 502.998 374.834C501.682 374.247 502.352 374.339 500.916 374.566C485.355 378.979 463.66 386.851 449.211 394.091ZM565.126 618.899C573.129 615.676 589.729 610.759 592.28 603.125C599.424 581.739 597.881 543.064 589.847 522.986C581.74 522.696 575.466 523.42 569.082 517.96C568.222 517.225 563.874 513.537 563.22 513.125C538.996 524.067 514.101 536.647 489.818 547.42C505.844 572.595 515.242 585.427 538.941 603.512C544.226 607.208 559.202 616.501 565.126 618.899ZM417.506 302.73C383.242 320.539 350.471 365.24 340.597 401.965C337.154 414.771 332.937 435.844 333.098 449.04L333.689 450.033L335.631 449.08C356.528 436.126 378.108 424.306 400.276 413.672C397.853 398.921 399.941 391.127 413.121 382.872C409.505 366.808 408.786 337.543 412.445 321.177C413.355 317.104 417.451 305.519 417.506 302.73ZM602.881 599.126C639.557 574.548 665.047 530.564 673.509 487.673C674.095 484.701 675.751 476.464 675.475 473.811L674.78 473.612C653.075 478.086 631.823 484.528 611.286 492.857C610.313 507.24 610.261 511.698 597.551 520.68C605.299 546.72 607.654 565.772 603.552 593.088C603.404 595.162 603.348 597.1 602.881 599.126ZM428.733 423.642C435.117 422.33 440.298 417.677 442.288 411.471C444.277 405.264 442.767 398.467 438.335 393.687C433.904 388.907 427.241 386.887 420.901 388.402C411.313 390.693 405.335 400.253 407.474 409.876C409.613 419.5 419.076 425.628 428.733 423.642ZM563.16 425.262C567.646 434.064 572.682 442.135 577.008 451.245C579.274 456.017 583.578 468.204 585.823 471.438C598.937 474.729 601.546 474.291 609.206 485.883C626.77 476.648 656.968 468.029 676.424 464.183C676.646 452.317 676.44 439.792 675.217 427.987C674.891 424.843 672.051 406.032 670.492 404.387L669.266 404.497C645.884 412.184 629.256 414.51 604.784 417.65C594.624 418.953 572.841 422.254 563.16 425.262ZM469.556 281.234C474.937 285.277 481.295 289.924 485.993 294.669C488.693 297.377 492.972 301.942 495.9 304.079C497.312 295.383 498.794 286.698 500.344 278.026C498.809 278.07 496.369 278.06 494.917 278.21C486.267 278.603 478.1 279.92 469.556 281.234ZM458.26 284.532C437.216 291.343 430.537 290.379 423.53 312.837C416.477 335.445 416.835 356.964 420.959 379.956C432.658 379.961 433.929 379.86 443.249 387.34L455.628 382.295C470.738 376.144 485.384 369.946 501.152 365.606C496.241 347.367 495.028 334.96 493.998 316.079C488.355 307.803 467.86 288.632 459.214 284.444L458.26 284.532Z"/><path fill="#413F41" d="M606.85 296.787C617.192 295.525 626.59 302.909 627.812 313.255C629.034 323.602 621.615 332.972 611.263 334.154C600.968 335.33 591.659 327.96 590.444 317.669C589.229 307.378 596.564 298.041 606.85 296.787ZM598.609 315.997C598.713 318.998 600.105 321.808 602.429 323.709C604.753 325.61 607.785 326.417 610.746 325.922C616.363 324.984 620.188 319.713 619.338 314.083C618.489 308.452 613.278 304.544 607.635 305.306C602.327 306.023 598.425 310.644 598.609 315.997Z"/><path fill="#413F41" d="M561.909 274.766C571.96 273.64 581.034 280.84 582.223 290.883C583.412 300.926 576.269 310.046 566.234 311.298C556.108 312.561 546.889 305.341 545.69 295.208C544.49 285.074 551.769 275.901 561.909 274.766Z"/><path fill="#C28CBA" d="M561.06 283.199C566.454 281.671 572.069 284.789 573.623 290.175C575.178 295.561 572.089 301.192 566.71 302.773C561.294 304.367 555.615 301.25 554.049 295.826C552.483 290.401 555.627 284.738 561.06 283.199Z"/><path fill="#413F41" d="M650.136 320.307C659.95 317.779 669.952 323.696 672.463 333.514C674.974 343.332 669.04 353.325 659.218 355.819C649.419 358.308 639.455 352.392 636.95 342.597C634.445 332.801 640.345 322.828 650.136 320.307Z"/><path fill="#C28CBA" d="M652.627 328.167C658.04 327.086 663.311 330.573 664.435 335.977C665.559 341.381 662.114 346.68 656.719 347.847C651.263 349.027 645.891 345.535 644.754 340.07C643.618 334.604 647.153 329.26 652.627 328.167Z"/><path fill="#C28CBA" d="M580.86 479.879C587.197 478.342 593.87 480.344 598.316 485.115C602.761 489.885 604.287 496.684 602.307 502.897C600.327 509.11 595.149 513.771 588.763 515.09C579.12 517.081 569.661 510.976 567.505 501.369C565.349 491.762 571.291 482.2 580.86 479.879Z"/><path fill="#413F41" d="M400.706 476.699C405.669 476.364 422.015 477.435 424.744 483.056C425.911 485.46 423.353 491.965 422.445 494.66C423.917 495.285 425.473 496.034 426.936 496.708C437.968 480.6 445.9 494.617 451.89 505.438C455.138 511.307 459.295 532.856 452.441 536.074L451.304 535.559C448.974 531.611 450.459 520.286 449.491 515C448.486 509.515 441.402 495.291 435.597 495.277C433.851 496.505 433.219 498.006 432.129 499.87C450.69 517.485 446.746 545.409 425.934 559.707C422.387 562.144 415.834 564.462 411.674 566.349C407.296 576.756 404.992 585.059 393.792 590.379C390.235 591.975 386.55 591.979 382.918 590.68C366.904 584.952 373.883 567.073 377.778 555.703C375.601 553.569 373.68 552.081 372.022 549.444C367.463 542.191 367.039 532.383 368.841 524.179C369.147 520.741 372.515 518.107 373.691 515.343C382.22 495.308 395.933 486.008 417.862 491.673L419.389 485.477C401.406 479.711 381.895 482.216 370.871 499.018C368.641 502.415 367.577 509.913 362.605 510.433C361.718 509.672 361.297 509.046 361.426 507.762C363.422 487.814 383.706 478.064 400.706 476.699ZM415.414 510.643C404.598 515.582 387.596 518.278 374.569 524.326C374.388 532.355 374.039 540.03 378.19 547.263C384.046 550.539 382.393 551.351 383.698 557.342C386.768 560.364 388.293 561.355 392.32 562.923C397.003 564.933 401.619 565.137 406.669 565.417L408.144 559.939L408.643 559.724C417.903 555.8 422.992 556.541 430.224 547.686C427.149 541.219 423.347 533.933 421.243 527.17C418.963 519.843 423.172 509.627 424.664 502.12L420.301 499.966C418.913 503.952 417.788 507.086 415.414 510.643ZM397.922 580.321C400.619 576.928 402.083 575.147 403.944 571.148C393.624 570.337 390.287 569.948 381.602 563.706C379.758 571.151 377.147 591.267 392.983 584.525C394.426 583.911 396.796 581.549 397.922 580.321Z"/><path fill="#413F41" d="M350.588 583.643C355.685 583.264 359.876 583.641 364.912 584.252C373.552 604.562 384.953 602.832 402.799 597.108C419.299 603.381 425.857 614.162 416.416 631.162C414.281 635.005 411.693 636.517 407.478 637.329C393.6 635.161 349.962 615.868 335.598 609.553C333.918 608.568 332.561 607.681 332.192 605.709C329.928 593.614 339.443 585.807 350.588 583.643Z"/><path fill="#413F41" d="M408.578 696.495C414.729 696.647 419.216 696.32 422.743 702.412C425.566 707.289 428.283 712.012 431.401 716.714C435.002 710.518 437.992 705.49 442.465 699.828C447.623 698.791 448.422 698.758 453.419 700.469C454.186 712.308 453.944 726.038 453.964 737.999C451.773 740.621 449.84 743.143 446.226 741.814C443.422 738.705 443.936 733.966 443.671 729.625C443.671 727.35 443.879 718.838 442.925 717.243C440.095 717.964 437.123 724.508 434.893 726.634C433.652 727.817 431.667 729.126 429.868 728.853C427.065 728.429 420.802 716.82 418.755 714.041C418.293 720.937 420.997 740.061 414.361 742.909C407.401 743.092 408.14 733.744 408.388 728.952C408.926 718.583 407.57 706.659 408.578 696.495Z"/><path fill="#413F41" d="M499.131 698.156C503.051 698.01 504.572 697.922 508.409 698.541C508.444 708.577 508.371 727.847 509.676 737.426C494.534 755.029 498.653 720.038 498.264 713.39C495.574 718.1 490.192 729.83 484.505 730.155C481.354 729.191 477.785 719.857 473.285 715.762L472.976 716.875C472.962 723.898 473.157 730.92 473.561 737.931C468.364 745.215 463.056 743.215 463.037 735.811C463.027 731.704 462.512 701.296 463.86 699.625C473.958 695.678 480.852 709.778 485.604 716.314C489.818 711.067 494.055 700.759 499.131 698.156Z"/><path fill="#413F41" d="M569.115 697.083C576.946 696.795 592.12 696.887 596.373 704.351C601.094 712.636 595.924 720.458 588.816 724.64C590.332 726.64 591.567 728.777 593.156 730.833C595.341 733.658 598.739 736.224 598.13 739.992C595.672 743.272 591.545 742.774 588.562 740.49C584.97 736.074 582.351 730.806 579.453 725.839C577.664 725.908 576.176 725.784 574.388 725.668C573.947 730.022 574.983 737.355 572.906 740.813C571.625 742.946 566.772 742.414 564.827 740.553C563.649 737.463 563.694 704.432 564.714 699.53C565.016 698.08 567.641 697.448 569.115 697.083ZM574.061 718.448C579.15 718.426 581.72 718.894 586.135 716.406C594.284 705.947 581.05 705.215 574.135 705.435C574.091 709.735 573.99 714.159 574.061 718.448Z"/><path fill="#413F41" d="M530.487 697.156C535.191 696.987 537.597 697.453 541.969 698.797C546.682 706.493 553.723 729.722 558.983 739.231C559.192 739.608 558.656 740.147 558.317 740.654C556.122 741.988 553.829 742.231 551.256 741.914C548.358 741.556 547.025 736.571 545.437 733.653L543.886 733.328C538.453 732.735 532.961 732.882 527.522 733.314C526.987 735.035 526.164 738.287 524.922 739.476C522.34 741.949 518.499 744.152 515.594 741.099C515.46 740.559 515.327 740.019 515.194 739.478C519.807 727.074 526.191 708.843 530.487 697.156ZM530.035 725.865C532.657 725.545 533.981 725.484 536.625 725.508L542.678 725.424C540.857 719.296 538.45 713.086 536.76 707.093C534.425 713.36 532.33 719.653 530.035 725.865Z"/><path fill="#413F41" d="M366.542 695.963L368.27 696.269C374.689 700.566 370.461 719.602 372.458 726.812C372.949 728.585 373.776 729.894 374.697 731.449C397.649 743.193 383.958 707.3 389.991 698.566C390.499 697.83 392.229 697.25 393.167 697.275C400.486 697.467 399.568 704.26 399.473 709.375C399.553 718.532 400.848 736.279 392.446 740.036C372.956 748.621 360.119 736.714 362.067 716.378C362.767 709.08 358.764 699.411 366.542 695.963Z"/><path fill="#413F41" d="M340.106 694.677C343.69 694.655 349.378 695.835 352.107 698.2C356.807 702.271 352.836 705.122 349.906 707.63C344.782 704.004 337.913 700.621 332.905 706.428C331.614 712.953 346.26 714.939 350.282 717.782C353.074 719.756 354.758 722.364 356.417 725.178C356.469 725.992 356.511 726.807 356.543 727.622C357.004 740.079 346.611 742.681 336.375 742.493C330.809 742.096 322.237 737.496 322.891 731.167C326.242 724.539 334.019 733.522 338.074 734.089C341.947 734.631 346.021 733.24 346.701 728.962C343.964 721.946 324.873 722.531 323.635 711.356C322.371 699.942 330.105 695.786 340.106 694.677Z"/><path fill="#413F41" d="M625.283 697.376C635.181 697.814 645.625 696.963 655.438 697.669C657.058 697.786 657.321 698.458 657.966 699.484C658.279 702.683 656.546 705.486 654.689 707.963C648.3 716.483 641.826 724.943 635.478 733.494L650.014 733.3C652.87 733.273 658.155 732.769 660.044 734.623C660.871 736.772 660.633 738.602 660.6 740.933C660.039 741.168 659.718 741.312 659.114 741.512C656.265 742.455 627.386 742.406 625.561 741.115C624.438 740.321 624.108 739.662 623.889 738.321C622.915 732.371 640.639 711.411 645.196 705.503C640.222 705.393 635.396 705.95 630.51 705.771C624.374 705.545 624.68 701.893 625.283 697.376Z"/><path fill="#413F41" d="M667.007 697.566C671.906 697.544 688.626 696.813 691.819 698.411C692.564 699.981 692.839 702.779 691.958 704.336C688.97 706.459 680.329 705.616 676.054 705.55C675.947 708.885 676.048 712.264 676.104 715.603C678.156 715.673 687.347 715.021 689.257 715.474C695.49 716.954 692.299 725.108 685.843 724C683.667 723.627 678.568 723.645 675.801 723.685C675.936 726.102 675.913 729.159 675.96 731.625L676.072 733.019C678.813 735.302 689.76 732.11 695.316 734.409C697.328 736.416 697.599 738.697 695.891 741.011C692.752 743.047 673.953 741.659 669.326 741.642C668.711 741.64 666.519 740.752 666.53 739.848C666.653 729.858 664.486 706.248 667.007 697.566Z"/><path fill="#413F41" d="M432.02 780.715C436.483 780.249 445.455 779.292 445.183 785.452C445.035 788.798 440.583 789.97 437.997 789.923C422.944 789.646 407.908 789.345 392.866 788.781C373.492 787.757 353.796 787.809 334.511 786.037C329.086 785.836 323.664 785.593 318.243 785.31C317.534 784.849 317.91 784.925 317.13 785.022L317.972 785.218L317.914 784.855L382.883 782.257C399.446 781.716 415.308 781.714 432.02 780.715Z"/><path fill="#413F41" d="M582.445 780.114C597.524 780.017 617.715 781.376 633.329 781.974C650.549 782.537 667.758 783.409 684.947 784.591C690.865 784.95 697.778 784.973 703.477 785.536C700.93 786.189 698.558 786.014 695.916 786.002C657.757 787.191 619.079 789.951 580.92 789.191C578.786 789.149 575.068 782.91 582.445 780.114Z"/><path fill="#413F41" d="M606.262 697.039C609.218 697.704 612.994 697.791 615.907 696.917C615.957 703.416 616.289 736.815 615.36 741.094C613.304 742.452 609.559 741.987 607.103 741.796C605.646 739.663 606.277 702.583 606.262 697.039Z"/><path d="M481.435 771.359C484.782 772.254 495.209 786.868 498.408 790.763C498.431 788.082 498.123 773.729 498.561 772.178C499.898 771.684 499.235 771.681 500.613 772.289C501.065 774.87 500.859 791.138 501.038 795.367L499.969 795.735C496.538 794.97 486.752 780.894 484.123 777.417C484.341 780.091 484.355 793.093 482.758 795.015C480.933 792.564 480.862 774.834 481.435 771.359Z"/><path d="M512.403 771.426C515.456 771.32 525.1 770.362 526.743 772.694L526.263 773.443C522.71 773.55 518.977 773.74 515.446 773.514L515.089 781.587C517.791 781.652 523.93 780.901 525.7 782.826C524.185 785.124 518.207 783.311 515.448 784.329L515.41 785.226L515.352 792.71C520.069 792.825 522.124 792.255 526.774 793.706L526.882 794.244C523.32 796.032 516.493 795.569 512.319 795.519C512.036 789.351 512.113 777.526 512.403 771.426Z"/><path d="M534.537 771.231C538.13 771.128 550.159 770.519 552.813 772.251L552.88 773.119C550.172 773.76 547.911 773.577 545.131 773.544C545.181 778.661 545.018 784.217 544.954 789.364C545.051 791.218 545.396 793.728 544.483 795.234L543.321 795.513L542.534 794.941C541.754 789.66 542.404 779.91 541.973 773.524C539.527 773.504 535.899 774.237 534.208 772.77L534.537 771.231Z"/><path fill="#DBDBDA" fill-opacity="0.98431373" d="M599.325 695.797C604.575 694.393 608.605 687.178 613.573 690.997C617.328 693.884 623.347 693.566 625.021 695.206C622.301 697.45 617.875 694.472 615.907 696.917C612.994 697.791 609.218 697.704 606.262 697.039C604.867 695.844 601.412 695.922 599.325 695.797Z"/><path d="M466.934 771.88C468.271 771.968 468.516 772.036 469.825 772.368C469.966 780.276 469.579 787.387 470.095 795.398C468.106 795.518 468.42 795.815 467.057 794.947C466.446 791.251 466.883 776.24 466.934 771.88Z"/><path fill="#DBDBDA" fill-opacity="0.82745099" d="M661.867 694.744C665.682 694.12 669.115 694.362 672.685 695.815C669.569 696.165 664.85 695.723 661.867 694.744Z"/><path d="M520.78 777.005C522.801 777.155 525.311 777.045 526.88 777.984L526.502 778.608C524.757 778.712 521.326 779.25 520.101 778.03L520.78 777.005Z"/><path d="M395.895 485.27C398.002 484.981 399.485 484.53 401.155 485.954C398.949 486.122 398.423 486.143 396.241 485.908L395.895 485.27Z"/></svg>